<svg width="38" height="37" viewBox="0 0 38 37" fill="none" xmlns="http://www.w3.org/2000/svg">
<path d="M2.33301 34.6665H35.6663M5.28301 15.9498L2.33301 12.9998L5.66634 5.49984L7.49967 6.4165C8.41634 6.88317 8.99967 7.8165 8.99967 8.83317C8.99967 9.84984 9.58301 10.7832 10.4997 11.2498L12.333 12.1665L17.333 2.1665L19.083 3.04984C19.5694 3.29207 19.9891 3.64951 20.3057 4.09105C20.6224 4.53258 20.8263 5.04482 20.8997 5.58317L22.0997 14.5832C22.1731 15.1215 22.377 15.6338 22.6936 16.0753C23.0102 16.5168 23.43 16.8743 23.9163 17.1165L31.2497 20.7832C31.9497 21.1498 32.5497 21.6998 32.933 22.3832L33.933 24.0998C34.7497 25.5665 33.833 27.3998 32.1663 27.5998L30.1997 27.8498C29.4163 27.9498 28.6163 27.8165 27.9163 27.4498L6.14967 16.5832C5.82847 16.4203 5.53578 16.2064 5.28301 15.9498Z" stroke="white" stroke-width="3.33333" stroke-linecap="round" stroke-linejoin="round"/>
</svg>
